<mxfile host="app.diagrams.net" modified="2021-06-16T17:13:10.211Z" agent="5.0 (Windows NT 10.0; Win64; x64) AppleWebKit/537.36 (KHTML, like Gecko) Chrome/91.0.4472.106 Safari/537.36" etag="vmTFn16pRZHbc6CX8CjV" version="14.7.9" type="github">
  <diagram id="komYEie3QTRUpcBvVqPn" name="Page-1">
    <mxGraphModel dx="1092" dy="1716" grid="1" gridSize="10" guides="1" tooltips="1" connect="1" arrows="1" fold="1" page="1" pageScale="1" pageWidth="827" pageHeight="1169" math="0" shadow="0">
      <root>
        <mxCell id="0" />
        <mxCell id="1" parent="0" />
        <mxCell id="149IaNUDBhoptBGHv427-38" value="" style="edgeStyle=orthogonalEdgeStyle;rounded=0;orthogonalLoop=1;jettySize=auto;html=1;" edge="1" parent="1" source="149IaNUDBhoptBGHv427-1">
          <mxGeometry relative="1" as="geometry">
            <mxPoint x="500" y="233" as="targetPoint" />
          </mxGeometry>
        </mxCell>
        <mxCell id="149IaNUDBhoptBGHv427-1" value="" style="image;html=1;image=img/lib/clip_art/networking/Cloud_128x128.png" vertex="1" parent="1">
          <mxGeometry x="437" y="100.00000000000001" width="100" height="90" as="geometry" />
        </mxCell>
        <mxCell id="149IaNUDBhoptBGHv427-2" value="" style="aspect=fixed;perimeter=ellipsePerimeter;html=1;align=center;shadow=0;dashed=0;spacingTop=3;image;image=img/lib/active_directory/web_server.svg;" vertex="1" parent="1">
          <mxGeometry x="461" y="-60" width="72" height="90" as="geometry" />
        </mxCell>
        <mxCell id="149IaNUDBhoptBGHv427-46" style="edgeStyle=orthogonalEdgeStyle;rounded=0;orthogonalLoop=1;jettySize=auto;html=1;" edge="1" parent="1" source="149IaNUDBhoptBGHv427-3">
          <mxGeometry relative="1" as="geometry">
            <mxPoint x="120" y="90" as="targetPoint" />
          </mxGeometry>
        </mxCell>
        <mxCell id="149IaNUDBhoptBGHv427-3" value="" style="aspect=fixed;perimeter=ellipsePerimeter;html=1;align=center;shadow=0;dashed=0;spacingTop=3;image;image=img/lib/active_directory/windows_server_2.svg;" vertex="1" parent="1">
          <mxGeometry x="210" y="15.899999999999999" width="72" height="90" as="geometry" />
        </mxCell>
        <mxCell id="149IaNUDBhoptBGHv427-45" style="edgeStyle=orthogonalEdgeStyle;rounded=0;orthogonalLoop=1;jettySize=auto;html=1;" edge="1" parent="1" source="149IaNUDBhoptBGHv427-4">
          <mxGeometry relative="1" as="geometry">
            <mxPoint x="140" y="280" as="targetPoint" />
          </mxGeometry>
        </mxCell>
        <mxCell id="149IaNUDBhoptBGHv427-4" value="" style="aspect=fixed;perimeter=ellipsePerimeter;html=1;align=center;shadow=0;dashed=0;spacingTop=3;image;image=img/lib/active_directory/windows_server_2.svg;" vertex="1" parent="1">
          <mxGeometry x="270" y="205.9" width="72" height="90" as="geometry" />
        </mxCell>
        <mxCell id="149IaNUDBhoptBGHv427-42" style="edgeStyle=orthogonalEdgeStyle;rounded=0;orthogonalLoop=1;jettySize=auto;html=1;entryX=1;entryY=0.5;entryDx=0;entryDy=0;" edge="1" parent="1" source="149IaNUDBhoptBGHv427-5" target="149IaNUDBhoptBGHv427-4">
          <mxGeometry relative="1" as="geometry" />
        </mxCell>
        <mxCell id="149IaNUDBhoptBGHv427-43" style="edgeStyle=orthogonalEdgeStyle;rounded=0;orthogonalLoop=1;jettySize=auto;html=1;" edge="1" parent="1" source="149IaNUDBhoptBGHv427-5">
          <mxGeometry relative="1" as="geometry">
            <mxPoint x="310" y="467" as="targetPoint" />
            <Array as="points">
              <mxPoint x="372" y="415" />
              <mxPoint x="372" y="467" />
            </Array>
          </mxGeometry>
        </mxCell>
        <mxCell id="149IaNUDBhoptBGHv427-44" style="edgeStyle=orthogonalEdgeStyle;rounded=0;orthogonalLoop=1;jettySize=auto;html=1;entryX=1;entryY=0.5;entryDx=0;entryDy=0;" edge="1" parent="1" source="149IaNUDBhoptBGHv427-5" target="149IaNUDBhoptBGHv427-3">
          <mxGeometry relative="1" as="geometry">
            <Array as="points">
              <mxPoint x="420" y="415" />
              <mxPoint x="420" y="61" />
            </Array>
          </mxGeometry>
        </mxCell>
        <mxCell id="149IaNUDBhoptBGHv427-5" value="" style="aspect=fixed;perimeter=ellipsePerimeter;html=1;align=center;shadow=0;dashed=0;spacingTop=3;image;image=img/lib/active_directory/windows_server_2.svg;" vertex="1" parent="1">
          <mxGeometry x="451" y="369.99999999999994" width="72" height="90" as="geometry" />
        </mxCell>
        <mxCell id="149IaNUDBhoptBGHv427-40" style="edgeStyle=orthogonalEdgeStyle;rounded=0;orthogonalLoop=1;jettySize=auto;html=1;entryX=1;entryY=0.5;entryDx=0;entryDy=0;" edge="1" parent="1" source="149IaNUDBhoptBGHv427-6" target="149IaNUDBhoptBGHv427-5">
          <mxGeometry relative="1" as="geometry" />
        </mxCell>
        <mxCell id="149IaNUDBhoptBGHv427-6" value="" style="shape=mxgraph.cisco.people.androgenous_person;html=1;pointerEvents=1;dashed=0;fillColor=#036897;strokeColor=#ffffff;strokeWidth=2;verticalLabelPosition=bottom;verticalAlign=top;align=center;outlineConnect=0;" vertex="1" parent="1">
          <mxGeometry x="665" y="330" width="60" height="60" as="geometry" />
        </mxCell>
        <mxCell id="149IaNUDBhoptBGHv427-7" value="" style="points=[];aspect=fixed;html=1;align=center;shadow=0;dashed=0;image;image=img/lib/allied_telesis/computer_and_terminals/Personal_Computer.svg;" vertex="1" parent="1">
          <mxGeometry x="64.4" y="30" width="45.6" height="61.800000000000004" as="geometry" />
        </mxCell>
        <mxCell id="149IaNUDBhoptBGHv427-8" value="" style="points=[];aspect=fixed;html=1;align=center;shadow=0;dashed=0;image;image=img/lib/allied_telesis/computer_and_terminals/Personal_Computer.svg;" vertex="1" parent="1">
          <mxGeometry x="90" y="100" width="45.6" height="61.800000000000004" as="geometry" />
        </mxCell>
        <mxCell id="149IaNUDBhoptBGHv427-9" value="" style="points=[];aspect=fixed;html=1;align=center;shadow=0;dashed=0;image;image=img/lib/allied_telesis/computer_and_terminals/Personal_Computer.svg;" vertex="1" parent="1">
          <mxGeometry x="30" y="91.8" width="45.6" height="61.800000000000004" as="geometry" />
        </mxCell>
        <mxCell id="149IaNUDBhoptBGHv427-10" value="" style="points=[];aspect=fixed;html=1;align=center;shadow=0;dashed=0;image;image=img/lib/allied_telesis/computer_and_terminals/Personal_Computer.svg;" vertex="1" parent="1">
          <mxGeometry x="74.4" y="220" width="45.6" height="61.800000000000004" as="geometry" />
        </mxCell>
        <mxCell id="149IaNUDBhoptBGHv427-11" value="" style="points=[];aspect=fixed;html=1;align=center;shadow=0;dashed=0;image;image=img/lib/allied_telesis/computer_and_terminals/Personal_Computer.svg;" vertex="1" parent="1">
          <mxGeometry x="100" y="290" width="45.6" height="61.800000000000004" as="geometry" />
        </mxCell>
        <mxCell id="149IaNUDBhoptBGHv427-12" value="" style="points=[];aspect=fixed;html=1;align=center;shadow=0;dashed=0;image;image=img/lib/allied_telesis/computer_and_terminals/Personal_Computer.svg;" vertex="1" parent="1">
          <mxGeometry x="40" y="281.8" width="45.6" height="61.800000000000004" as="geometry" />
        </mxCell>
        <mxCell id="149IaNUDBhoptBGHv427-39" value="" style="edgeStyle=orthogonalEdgeStyle;rounded=0;orthogonalLoop=1;jettySize=auto;html=1;" edge="1" parent="1" source="149IaNUDBhoptBGHv427-14" target="149IaNUDBhoptBGHv427-5">
          <mxGeometry relative="1" as="geometry" />
        </mxCell>
        <mxCell id="149IaNUDBhoptBGHv427-14" value="" style="aspect=fixed;perimeter=ellipsePerimeter;html=1;align=center;shadow=0;dashed=0;spacingTop=3;image;image=img/lib/active_directory/firewall.svg;" vertex="1" parent="1">
          <mxGeometry x="469.55" y="230" width="54.9" height="90" as="geometry" />
        </mxCell>
        <mxCell id="149IaNUDBhoptBGHv427-37" value="" style="edgeStyle=orthogonalEdgeStyle;rounded=0;orthogonalLoop=1;jettySize=auto;html=1;" edge="1" parent="1" source="149IaNUDBhoptBGHv427-15" target="149IaNUDBhoptBGHv427-1">
          <mxGeometry relative="1" as="geometry" />
        </mxCell>
        <mxCell id="149IaNUDBhoptBGHv427-15" value="Microsoft Updates" style="text;html=1;align=center;verticalAlign=middle;resizable=0;points=[];autosize=1;strokeColor=none;" vertex="1" parent="1">
          <mxGeometry x="442" y="30" width="110" height="20" as="geometry" />
        </mxCell>
        <mxCell id="149IaNUDBhoptBGHv427-17" value="Internet" style="text;html=1;align=center;verticalAlign=middle;resizable=0;points=[];autosize=1;strokeColor=none;" vertex="1" parent="1">
          <mxGeometry x="487" y="180" width="60" height="20" as="geometry" />
        </mxCell>
        <mxCell id="149IaNUDBhoptBGHv427-41" value="" style="edgeStyle=orthogonalEdgeStyle;rounded=0;orthogonalLoop=1;jettySize=auto;html=1;" edge="1" parent="1" source="149IaNUDBhoptBGHv427-18">
          <mxGeometry relative="1" as="geometry">
            <mxPoint x="487" y="550" as="targetPoint" />
          </mxGeometry>
        </mxCell>
        <mxCell id="149IaNUDBhoptBGHv427-18" value="Upstream WSUS &lt;br&gt;Server&amp;nbsp;&lt;br&gt;(MAIN BRANCH&lt;br&gt;WESTVILLE)" style="text;html=1;align=center;verticalAlign=middle;resizable=0;points=[];autosize=1;strokeColor=none;" vertex="1" parent="1">
          <mxGeometry x="432" y="460" width="110" height="60" as="geometry" />
        </mxCell>
        <mxCell id="149IaNUDBhoptBGHv427-19" value="Network&amp;nbsp;&lt;br&gt;Administrator&lt;br&gt;" style="text;html=1;align=center;verticalAlign=middle;resizable=0;points=[];autosize=1;strokeColor=none;" vertex="1" parent="1">
          <mxGeometry x="650" y="390" width="90" height="30" as="geometry" />
        </mxCell>
        <mxCell id="149IaNUDBhoptBGHv427-20" value="Firewall&lt;br&gt;" style="text;html=1;align=center;verticalAlign=middle;resizable=0;points=[];autosize=1;strokeColor=none;" vertex="1" parent="1">
          <mxGeometry x="537" y="275.9" width="60" height="20" as="geometry" />
        </mxCell>
        <mxCell id="149IaNUDBhoptBGHv427-21" value="" style="points=[];aspect=fixed;html=1;align=center;shadow=0;dashed=0;image;image=img/lib/allied_telesis/computer_and_terminals/Personal_Computer.svg;" vertex="1" parent="1">
          <mxGeometry x="465.8" y="551.8" width="45.6" height="61.800000000000004" as="geometry" />
        </mxCell>
        <mxCell id="149IaNUDBhoptBGHv427-22" value="" style="points=[];aspect=fixed;html=1;align=center;shadow=0;dashed=0;image;image=img/lib/allied_telesis/computer_and_terminals/Personal_Computer.svg;" vertex="1" parent="1">
          <mxGeometry x="491.4" y="621.8" width="45.6" height="61.800000000000004" as="geometry" />
        </mxCell>
        <mxCell id="149IaNUDBhoptBGHv427-23" value="" style="points=[];aspect=fixed;html=1;align=center;shadow=0;dashed=0;image;image=img/lib/allied_telesis/computer_and_terminals/Personal_Computer.svg;" vertex="1" parent="1">
          <mxGeometry x="431.4" y="613.5999999999999" width="45.6" height="61.800000000000004" as="geometry" />
        </mxCell>
        <mxCell id="149IaNUDBhoptBGHv427-24" value="" style="points=[];aspect=fixed;html=1;align=center;shadow=0;dashed=0;image;image=img/lib/allied_telesis/computer_and_terminals/Personal_Computer.svg;" vertex="1" parent="1">
          <mxGeometry x="64.39999999999998" y="430" width="45.6" height="61.800000000000004" as="geometry" />
        </mxCell>
        <mxCell id="149IaNUDBhoptBGHv427-25" value="" style="points=[];aspect=fixed;html=1;align=center;shadow=0;dashed=0;image;image=img/lib/allied_telesis/computer_and_terminals/Personal_Computer.svg;" vertex="1" parent="1">
          <mxGeometry x="90" y="500" width="45.6" height="61.800000000000004" as="geometry" />
        </mxCell>
        <mxCell id="149IaNUDBhoptBGHv427-26" value="" style="points=[];aspect=fixed;html=1;align=center;shadow=0;dashed=0;image;image=img/lib/allied_telesis/computer_and_terminals/Personal_Computer.svg;" vertex="1" parent="1">
          <mxGeometry x="30" y="491.8" width="45.6" height="61.800000000000004" as="geometry" />
        </mxCell>
        <mxCell id="149IaNUDBhoptBGHv427-47" style="edgeStyle=orthogonalEdgeStyle;rounded=0;orthogonalLoop=1;jettySize=auto;html=1;" edge="1" parent="1" source="149IaNUDBhoptBGHv427-27">
          <mxGeometry relative="1" as="geometry">
            <mxPoint x="120" y="490" as="targetPoint" />
          </mxGeometry>
        </mxCell>
        <mxCell id="149IaNUDBhoptBGHv427-27" value="" style="aspect=fixed;perimeter=ellipsePerimeter;html=1;align=center;shadow=0;dashed=0;spacingTop=3;image;image=img/lib/active_directory/windows_server_2.svg;" vertex="1" parent="1">
          <mxGeometry x="220" y="401.8" width="72" height="90" as="geometry" />
        </mxCell>
        <mxCell id="149IaNUDBhoptBGHv427-28" value="Pietermaritzburg&lt;br&gt;WSUS Server&lt;br&gt;(Replica Mode)" style="text;html=1;align=center;verticalAlign=middle;resizable=0;points=[];autosize=1;strokeColor=none;" vertex="1" parent="1">
          <mxGeometry x="192" y="103.6" width="100" height="50" as="geometry" />
        </mxCell>
        <mxCell id="149IaNUDBhoptBGHv427-29" value="Pretoria&lt;br&gt;WSUS Server&lt;br&gt;(Replica Mode)" style="text;whiteSpace=wrap;html=1;" vertex="1" parent="1">
          <mxGeometry x="260" y="295.9" width="110" height="60" as="geometry" />
        </mxCell>
        <mxCell id="149IaNUDBhoptBGHv427-30" value="Durban North WSUS Server&lt;br&gt;(Replica Mode)" style="text;whiteSpace=wrap;html=1;" vertex="1" parent="1">
          <mxGeometry x="210" y="491.8" width="110" height="60" as="geometry" />
        </mxCell>
        <mxCell id="149IaNUDBhoptBGHv427-31" value="Clients" style="text;html=1;align=center;verticalAlign=middle;resizable=0;points=[];autosize=1;strokeColor=none;" vertex="1" parent="1">
          <mxGeometry x="437" y="675.4" width="50" height="20" as="geometry" />
        </mxCell>
        <mxCell id="149IaNUDBhoptBGHv427-32" value="Clients" style="text;html=1;align=center;verticalAlign=middle;resizable=0;points=[];autosize=1;strokeColor=none;" vertex="1" parent="1">
          <mxGeometry x="40" y="553.6" width="50" height="20" as="geometry" />
        </mxCell>
        <mxCell id="149IaNUDBhoptBGHv427-33" value="Clients" style="text;html=1;align=center;verticalAlign=middle;resizable=0;points=[];autosize=1;strokeColor=none;" vertex="1" parent="1">
          <mxGeometry x="62.2" y="350" width="50" height="20" as="geometry" />
        </mxCell>
        <mxCell id="149IaNUDBhoptBGHv427-34" value="Clients" style="text;html=1;align=center;verticalAlign=middle;resizable=0;points=[];autosize=1;strokeColor=none;" vertex="1" parent="1">
          <mxGeometry x="40" y="160" width="50" height="20" as="geometry" />
        </mxCell>
      </root>
    </mxGraphModel>
  </diagram>
</mxfile>
